# xmcd CD database file generated by Grip 3.3.1
# 
# Track frame offsets:
#       150
#       21679
#       42558
#       56059
#       70312
#       89555
#       107801
#       123739
#       134562
#       150024
#       165674
# 
# Disc length: 2463 seconds
# 
# Revision: 3
# Processed by: cddbd v1.5.1PL2 Copyright (c) Steve Scherf et al.
# Submitted via: Grip 3.3.1
# 
DISCID=a1099d0b
DTITLE=Bebel Gilberto - Tanto Tempo
DYEAR=1900
DGENRE=Blues
TTITLE0=Samba da Bencao
TTITLE1=August Day Song
TTITLE2=Tanto Tempo
TTITLE3=Sem Contencao
TTITLE4=Mais Feliz
TTITLE5=Alguem
TTITLE6=So Nice (Summer Samba)
TTITLE7=Lonely
TTITLE8=Bananeira
TTITLE9=Samba e Amor
TTITLE10=Close Your Eyes
EXTD=
EXTT0=
EXTT1=
EXTT2=
EXTT3=
EXTT4=
EXTT5=
EXTT6=
EXTT7=
EXTT8=
EXTT9=
EXTT10=
PLAYORDER=
